<svg width="12" height="21" viewBox="0 0 12 21" fill="none" xmlns="http://www.w3.org/2000/svg">
<path d="M9.81818 4.77273V15.75C9.81818 17.8595 8.10955 19.5682 6 19.5682C3.89045 19.5682 2.18182 17.8595 2.18182 15.75V3.81818C2.18182 2.50091 3.25091 1.43182 4.56818 1.43182C5.88545 1.43182 6.95455 2.50091 6.95455 3.81818V13.8409C6.95455 14.3659 6.525 14.7955 6 14.7955C5.475 14.7955 5.04545 14.3659 5.04545 13.8409V4.77273H3.61364V13.8409C3.61364 15.1582 4.68273 16.2273 6 16.2273C7.31727 16.2273 8.38636 15.1582 8.38636 13.8409V3.81818C8.38636 1.70864 6.67773 0 4.56818 0C2.45864 0 0.75 1.70864 0.75 3.81818V15.75C0.75 18.6518 3.09818 21 6 21C8.90182 21 11.25 18.6518 11.25 15.75V4.77273H9.81818Z" fill="#FFF"/>
</svg>
