<svg width="40" height="40" viewBox="0 0 40 40" fill="none" xmlns="http://www.w3.org/2000/svg">
<path fill-rule="evenodd" clip-rule="evenodd" d="M20 0C8.95342 0 0 8.95343 0 20C0 28.8329 5.73151 36.3288 13.6767 38.9808C14.674 39.1671 15.0466 38.5425 15.0466 38.0164C15.0466 37.5343 15.0247 35.9671 15.0247 34.2904C9.45754 35.4959 8.28493 31.9342 8.28493 31.9342C7.37534 29.6219 6.06027 29.0082 6.06027 29.0082C4.2411 27.7699 6.19178 27.7918 6.19178 27.7918C8.19726 27.9342 9.26027 29.8521 9.26027 29.8521C11.0466 32.9096 13.9397 32.0219 15.0795 31.5178C15.2548 30.2247 15.7808 29.3479 16.3507 28.8438C11.9123 28.3397 7.23288 26.6192 7.23288 18.9589C7.23288 16.7781 8.01096 14.9918 9.29315 13.589C9.08493 13.0849 8.40548 11.0466 9.49041 8.29589C9.49041 8.29589 11.1671 7.7589 14.9918 10.3452C16.5918 9.90685 18.3014 9.67671 20 9.67671C21.6986 9.68767 23.4082 9.90685 25.0082 10.3452C28.8219 7.7589 30.4986 8.29589 30.4986 8.29589C31.5836 11.0466 30.9041 13.0849 30.6959 13.589C31.9781 14.9918 32.7562 16.7781 32.7562 18.9589C32.7562 26.6411 28.0767 28.3288 23.6274 28.8219C24.3397 29.4466 24.9863 30.663 24.9863 32.526C24.9863 35.2 24.9644 37.3589 24.9644 38.0164C24.9644 38.5534 25.326 39.1671 26.3342 38.9808C34.2795 36.3288 40 28.8438 40 20C40 8.95343 31.0466 0 20 0Z" fill="#1C1C1C"/>
</svg>
