<svg width="52" height="105" viewBox="0 0 52 105" fill="none" xmlns="http://www.w3.org/2000/svg">
<path d="M21.0801 79.2236C21.0801 76.1637 20.667 73.2874 19.8408 70.5947C19.0452 67.8714 17.8213 65.3929 16.1689 63.1592C14.5166 60.8949 12.4206 58.9059 9.88086 57.1924C7.34115 55.4482 4.34245 54.0254 0.884766 52.9238C4.34245 51.8223 7.34115 50.4147 9.88086 48.7012C12.4206 46.9876 14.5166 45.014 16.1689 42.7803C17.8213 40.516 19.0452 38.0221 19.8408 35.2988C20.667 32.5755 21.0801 29.6839 21.0801 26.624V23.7324C21.0801 19.9993 21.5391 16.71 22.457 13.8643C23.4056 11.0186 24.8743 8.63184 26.8633 6.7041C28.8522 4.77637 31.3919 3.32292 34.4824 2.34375C37.5729 1.36458 41.2754 0.875 45.5898 0.875H51.6943V10.6514H45.5898C43.6315 10.6514 41.8568 10.9115 40.2656 11.4316C38.7051 11.9518 37.374 12.7627 36.2725 13.8643C35.1709 14.9352 34.3294 16.2969 33.748 17.9492C33.1667 19.571 32.876 21.4987 32.876 23.7324V26.4404C32.876 33.264 31.7438 38.8636 29.4795 43.2393C27.2458 47.5843 23.9411 50.8125 19.5654 52.9238C23.9411 55.0352 27.2458 58.2786 29.4795 62.6543C31.7438 66.9993 32.876 72.5837 32.876 79.4072V82.1152C32.876 84.349 33.1667 86.292 33.748 87.9443C34.3294 89.5661 35.1709 90.9124 36.2725 91.9834C37.374 93.085 38.7051 93.8958 40.2656 94.416C41.8568 94.9362 43.6315 95.1963 45.5898 95.1963H51.6943V104.973H45.5898C41.2754 104.973 37.5729 104.483 34.4824 103.504C31.3919 102.525 28.8522 101.071 26.8633 99.1436C24.8743 97.2158 23.4056 94.8291 22.457 91.9834C21.5391 89.1377 21.0801 85.8483 21.0801 82.1152V79.2236Z" fill="#FC9B9B"/>
</svg>
