<svg width="52" height="105" viewBox="0 0 52 105" fill="none" xmlns="http://www.w3.org/2000/svg">
<path d="M30.9199 25.7764C30.9199 28.8363 31.333 31.7126 32.1592 34.4053C32.9547 37.1286 34.1787 39.6071 35.831 41.8408C37.4834 44.1051 39.5794 46.0941 42.1191 47.8076C44.6588 49.5518 47.6575 50.9746 51.1152 52.0762C47.6575 53.1777 44.6588 54.5853 42.1191 56.2988C39.5794 58.0124 37.4834 59.986 35.8311 62.2197C34.1787 64.4841 32.9547 66.9779 32.1592 69.7012C31.333 72.4245 30.9199 75.3161 30.9199 78.376L30.9199 81.2676C30.9199 85.0007 30.4609 88.29 29.543 91.1357C28.5944 93.9814 27.1256 96.3682 25.1367 98.2959C23.1478 100.224 20.6081 101.677 17.5176 102.656C14.4271 103.635 10.7246 104.125 6.41016 104.125L0.305664 104.125L0.305663 94.3486L6.41015 94.3486C8.36849 94.3486 10.1432 94.0885 11.7344 93.5684C13.2949 93.0482 14.626 92.2373 15.7275 91.1357C16.8291 90.0648 17.6706 88.7031 18.252 87.0508C18.8333 85.429 19.124 83.5013 19.124 81.2676L19.124 78.5596C19.124 71.736 20.2562 66.1364 22.5205 61.7607C24.7542 57.4157 28.0589 54.1875 32.4346 52.0762C28.0589 49.9648 24.7542 46.7214 22.5205 42.3457C20.2562 38.0007 19.124 32.4163 19.124 25.5928L19.124 22.8848C19.124 20.651 18.8333 18.708 18.2519 17.0557C17.6706 15.4339 16.8291 14.0876 15.7275 13.0166C14.626 11.915 13.2949 11.1042 11.7344 10.584C10.1432 10.0638 8.36848 9.80372 6.41015 9.80372L0.305655 9.80372L0.305655 0.0273488L6.41015 0.0273483C10.7246 0.0273479 14.4271 0.516931 17.5176 1.4961C20.6081 2.47526 23.1478 3.92871 25.1367 5.85645C27.1256 7.78418 28.5944 10.1709 29.543 13.0166C30.4609 15.8623 30.9199 19.1517 30.9199 22.8848L30.9199 25.7764Z" fill="#FC9B9B"/>
</svg>
