<svg width="40" height="40" viewBox="0 0 40 40" fill="none" xmlns="http://www.w3.org/2000/svg">
<path d="M20 0C8.95422 0 0 8.95421 0 20C0 31.0457 8.95422 39.9999 20 39.9999C31.0457 39.9999 40 31.0457 40 20C39.9999 8.95421 31.0455 0 20 0ZM14.6639 29.669H10.2727V15.4823H14.6639V29.669ZM12.4474 13.6245C11.0133 13.6245 9.85069 12.4524 9.85069 11.0068C9.85069 9.56102 11.0135 8.38902 12.4474 8.38902C13.8814 8.38902 15.044 9.56102 15.044 11.0068C15.0441 12.4525 13.8814 13.6245 12.4474 13.6245ZM31.1199 29.669H26.75V22.2222C26.75 20.1797 25.9742 19.0396 24.3592 19.0396C22.6015 19.0396 21.6833 20.227 21.6833 22.2222V29.669H17.4716V15.4823H21.6833V17.393C21.6833 17.393 22.9501 15.0496 25.9583 15.0496C28.9665 15.0496 31.12 16.8864 31.12 20.6862L31.1199 29.669Z" fill="#1C1C1C"/>
</svg>
