<svg width="46" height="34" viewBox="0 0 46 34" fill="none" xmlns="http://www.w3.org/2000/svg">
<g filter="url(#filter0_d_14_903)">
<path d="M23 1C13.9091 1 6.14545 6.65455 3 14.6364C6.14545 22.6182 13.9091 28.2727 23 28.2727C32.0909 28.2727 39.8545 22.6182 43 14.6364C39.8545 6.65455 32.0909 1 23 1ZM23 23.7273C17.9818 23.7273 13.9091 19.6545 13.9091 14.6364C13.9091 9.61818 17.9818 5.54545 23 5.54545C28.0182 5.54545 32.0909 9.61818 32.0909 14.6364C32.0909 19.6545 28.0182 23.7273 23 23.7273ZM23 9.18182C19.9818 9.18182 17.5455 11.6182 17.5455 14.6364C17.5455 17.6545 19.9818 20.0909 23 20.0909C26.0182 20.0909 28.4545 17.6545 28.4545 14.6364C28.4545 11.6182 26.0182 9.18182 23 9.18182Z" fill="white"/>
</g>
<defs>
<filter id="filter0_d_14_903" x="0" y="0" width="46" height="33.2727" filterUnits="userSpaceOnUse" color-interpolation-filters="sRGB">
<feFlood flood-opacity="0" result="BackgroundImageFix"/>
<feColorMatrix in="SourceAlpha" type="matrix" values="0 0 0 0 0 0 0 0 0 0 0 0 0 0 0 0 0 0 127 0" result="hardAlpha"/>
<feOffset dy="2"/>
<feGaussianBlur stdDeviation="1.5"/>
<feComposite in2="hardAlpha" operator="out"/>
<feColorMatrix type="matrix" values="0 0 0 0 0 0 0 0 0 0 0 0 0 0 0 0 0 0 0.05 0"/>
<feBlend mode="normal" in2="BackgroundImageFix" result="effect1_dropShadow_14_903"/>
<feBlend mode="normal" in="SourceGraphic" in2="effect1_dropShadow_14_903" result="shape"/>
</filter>
</defs>
</svg>
