<svg width="21" height="23" viewBox="0 0 21 23" fill="none" xmlns="http://www.w3.org/2000/svg">
<g clip-path="url(#clip0_1_948)">
<path d="M17.5045 4.40625C15.6339 2.53125 13.1429 1.5 10.4955 1.5C5.03125 1.5 0.584821 5.94643 0.584821 11.4107C0.584821 13.1562 1.04018 14.8616 1.90625 16.3661L0.5 21.5L5.75446 20.1205C7.20089 20.9107 8.83036 21.3259 10.4911 21.3259H10.4955C15.9554 21.3259 20.5 16.8795 20.5 11.4152C20.5 8.76786 19.375 6.28125 17.5045 4.40625ZM10.4955 19.6563C9.01339 19.6563 7.5625 19.2589 6.29911 18.5089L6 18.3304L2.88393 19.1473L3.71429 16.1071L3.51786 15.7946C2.69196 14.4821 2.25893 12.9688 2.25893 11.4107C2.25893 6.87054 5.95536 3.17411 10.5 3.17411C12.7009 3.17411 14.7679 4.03125 16.3214 5.58929C17.875 7.14732 18.8304 9.21429 18.8259 11.4152C18.8259 15.9598 15.0357 19.6563 10.4955 19.6563ZM15.0134 13.4866C14.7679 13.3616 13.5491 12.7634 13.3214 12.683C13.0938 12.5982 12.9286 12.558 12.7634 12.808C12.5982 13.058 12.125 13.6116 11.9777 13.7813C11.8348 13.9464 11.6875 13.9688 11.442 13.8438C9.98661 13.1161 9.03125 12.5446 8.07143 10.8973C7.81696 10.4598 8.32589 10.4911 8.79911 9.54464C8.87946 9.37946 8.83929 9.23661 8.77679 9.11161C8.71429 8.98661 8.21875 7.76786 8.01339 7.27232C7.8125 6.79018 7.60714 6.85714 7.45536 6.84821C7.3125 6.83929 7.14732 6.83929 6.98214 6.83929C6.81696 6.83929 6.54911 6.90179 6.32143 7.14732C6.09375 7.39732 5.45536 7.99554 5.45536 9.21429C5.45536 10.433 6.34375 11.6116 6.46429 11.7768C6.58929 11.942 8.20982 14.442 10.6964 15.5179C12.2679 16.1964 12.8839 16.2545 13.6696 16.1384C14.1473 16.067 15.1339 15.5402 15.3393 14.9598C15.5446 14.3795 15.5446 13.8839 15.4821 13.7813C15.4241 13.6696 15.2589 13.6071 15.0134 13.4866Z" fill="white"/>
</g>
<defs>
<clipPath id="clip0_1_948">
<rect width="20" height="22.8571" fill="white" transform="translate(0.5 0.0714417)"/>
</clipPath>
</defs>
</svg>
