<svg width="300" height="80" viewBox="0 0 156 17" fill="none" xmlns="http://www.w3.org/2000/svg">
<path d="M17 4H146V16H17V4Z" fill="#FF6563"/>
<path d="M18.7381 6.61403C17.0059 6.61403 15.2738 6.61403 13.5416 6.61403C13.1409 6.61403 10.6788 6.61403 12.2357 6.61403C13.9662 6.61403 15.6033 7.59348 17.405 7.59348C19.5024 7.59348 16.4018 7.42736 15.7862 7.33501C14.4051 7.12785 13.2052 6.85889 11.8004 6.85889C10.1498 6.85889 15.1015 6.85889 16.752 6.85889C17.2689 6.85889 17.7859 6.85889 18.3028 6.85889C18.7566 6.85889 17.3883 6.88939 16.9425 6.80448C16.0569 6.6358 15.1223 6.36917 14.2082 6.36917C13.1301 6.36917 9.93333 5.87944 11.0114 5.87944C12.6528 5.87944 14.2943 5.87944 15.9358 5.87944C16.6885 5.87944 17.4413 5.87944 18.194 5.87944C19.6168 5.87944 18.5912 5.87944 17.7315 5.87944C15.9654 5.87944 14.2356 5.63458 12.4805 5.63458C11.4637 5.63458 10.0595 5.63458 12.0724 5.63458C12.4889 5.63458 16.7882 6.12431 15.0108 6.12431C13.0292 6.12431 11.0476 6.12431 9.06607 6.12431C8.38203 6.12431 7.69367 6.04859 8.80761 6.38277C10.412 6.86408 12.1061 6.90926 13.7593 7.10375C15.4287 7.30016 17.0839 7.83834 18.7653 7.83834C20.2934 7.83834 15.7091 7.83834 14.181 7.83834C13.1834 7.83834 12.1858 7.83834 11.1882 7.83834C10.646 7.83834 9.29435 7.9648 10.6577 8.13762C14.7965 8.66226 19.0225 8.57293 23.1864 8.57293C23.9033 8.57293 23.1015 8.57293 22.86 8.57293C21.5404 8.57293 20.2209 8.57293 18.9014 8.57293C17.3596 8.57293 15.8179 8.57293 14.2762 8.57293C13.3874 8.57293 16.0537 8.57293 16.9425 8.57293C20.1057 8.57293 23.284 8.51748 26.4377 8.80418C26.5624 8.81552 24.9073 8.57829 24.4516 8.57293C22.5834 8.55095 17.0445 8.12217 18.8469 8.61374C21.1417 9.23959 28.2993 9.55237 25.9207 9.55237C24.2181 9.55237 21.6495 9.05865 20.0985 9.79724C19.1477 10.25 17.9232 10.0421 16.8881 10.0421C16.3036 10.0421 14.1013 9.86468 15.8406 10.0693C17.448 10.2584 18.9107 10.7223 20.561 10.7631C21.8634 10.7952 22.7765 10.9701 23.9618 11.2664C25.8359 11.7349 20.0985 11.2664 18.1668 11.2664C17.3599 11.2664 16.4923 11.1732 15.6909 11.28C14.4409 11.4467 17.6805 11.7328 17.8675 11.7561C18.7433 11.8656 21.3322 11.964 20.4794 12.1914C19.6935 12.401 18.7031 12.2459 17.8947 12.2459C16.5186 12.2459 12.4128 12.2679 13.7729 12.4771C15.9178 12.8071 22.372 13.3155 20.2073 13.4702C18.384 13.6004 16.5139 13.4702 14.6843 13.4702C14.1534 13.4702 13.0705 13.3736 12.6846 13.8239C12.5828 13.9426 12.9772 13.9548 13.1335 13.9599C14.1918 13.994 15.235 14.11 16.2895 14.2048C17.7728 14.3381 19.2614 14.4496 20.7514 14.4496C21.3885 14.4496 20.5711 14.4496 20.4113 14.4496C16.4346 14.4496 12.4579 14.4496 8.48113 14.4496C3.72445 14.4496 18.027 14.9918 22.7511 14.436C23.798 14.3128 21.9795 13.7557 21.7853 13.7286C20.1335 13.4981 18.4924 13.3324 16.8336 13.1709C15.6704 13.0577 14.6298 12.5241 13.46 12.4907C12.6182 12.4667 11.772 12.4907 10.9297 12.4907C10.7851 12.4907 10.0887 12.5923 10.3312 12.2459C10.7957 11.5823 13.2325 12.001 13.8409 12.001C18.4162 12.001 22.9915 12.001 27.5668 12.001C28.1152 12.001 26.6314 11.553 26.4785 11.5385C23.4935 11.2542 20.3744 11.5113 17.3778 11.5113C14.6752 11.5113 11.9727 11.5113 9.27013 11.5113C8.21368 11.5113 10.1628 11.5113 10.4128 11.5113C12.8433 11.5113 15.2738 11.5113 17.7043 11.5113C21.1686 11.5113 10.7756 11.5113 7.31123 11.5113C5.95089 11.5113 1.86985 11.5113 3.2302 11.5113C5.87833 11.5113 8.52647 11.5113 11.1746 11.5113C13.8389 11.5113 17.1998 12.0342 19.8128 11.4841C21.7503 11.0762 15.9297 10.5318 13.9497 10.5318C12.6069 10.5318 11.6359 9.55237 10.3176 9.55237C9.14839 9.55237 7.35419 9.06265 9.62382 9.06265C10.5398 9.06265 11.4557 9.06265 12.3717 9.06265C12.5329 9.06265 14.4771 9.13116 13.8817 8.81779C13.1427 8.42885 12.194 8.48102 11.4059 8.19203C10.6994 7.93301 10.1236 7.57226 9.37895 7.40303C7.1028 6.88572 5.21064 6.36917 2.82209 6.36917C-1.66778 6.36917 11.7996 6.12431 16.2895 6.12431" stroke="#FF6563" stroke-width="3" stroke-linecap="round"/>
<path d="M140.924 6.12433C142.72 6.12433 144.516 6.12433 146.311 6.12433C148.701 6.12433 151.429 5.74443 153.711 6.50523C154.164 6.65612 154.823 6.61406 153.902 6.61406C152.424 6.61406 150.945 6.61406 149.467 6.61406C146.837 6.61406 144.207 6.61406 141.577 6.61406C138.734 6.61406 143.086 6.61406 143.808 6.61406C144.996 6.61406 148.56 6.61406 147.372 6.61406C145.6 6.61406 143.893 6.12433 142.149 6.12433" stroke="#FF6563" stroke-width="3" stroke-linecap="round"/>
<path d="M140.19 5.38978C142.675 5.38978 145.159 5.38978 147.644 5.38978C148.898 5.38978 149.798 4.97038 150.95 4.6824C151.423 4.56416 151.951 4.69899 152.433 4.65519C152.968 4.6065 153.339 4.16547 153.902 4.16547" stroke="#FF6563" stroke-width="3" stroke-linecap="round"/>
<path d="M132.354 4.16547H153.902" stroke="#FF6563" stroke-width="3" stroke-linecap="round"/>
<path d="M141.414 9.79726C143.041 10.3757 144.704 10.3796 146.393 10.6407C147.717 10.8453 149.03 11.435 150.365 11.5113C154.851 11.7677 141.378 11.5113 136.884 11.5113C135.173 11.5113 137.702 11.5097 138.081 11.5249C138.531 11.5429 142.834 11.7793 141.305 11.7562C139.857 11.7342 138.434 11.5113 136.979 11.5113C136.485 11.5113 136.773 11.5113 137.006 11.5113C138.136 11.5113 139.265 11.5113 140.394 11.5113C141.908 11.5113 143.423 11.5113 144.937 11.5113C145.64 11.5113 143.532 11.5113 142.829 11.5113C141.233 11.5113 139.636 11.5113 138.04 11.5113C137.587 11.5113 137.451 11.5113 137.986 11.5113C138.983 11.5113 139.981 11.5113 140.979 11.5113C143.535 11.5113 146.541 11.2932 149.018 12.001C150.263 12.3567 149.573 12.2999 148.705 12.1915C147.448 12.0342 146.217 12.001 144.951 12.001C144.064 12.001 143.347 12.001 144.76 12.001C146.008 12.001 147.234 12.2459 148.474 12.2459C148.496 12.2459 147.016 11.8349 146.583 11.7562C145.854 11.6235 145.163 11.1666 144.516 11.0488C143.732 10.9063 142.86 11.061 142.257 10.423C141.469 9.58824 144.141 8.51058 144.488 8.32809C145.184 7.96281 145.794 7.48782 146.474 7.10378C146.835 6.90006 148.032 6.61406 147.617 6.61406C144.443 6.61406 141.269 6.61406 138.095 6.61406C137.95 6.61406 138.385 6.61039 138.53 6.61406C139.69 6.64342 140.814 6.8829 141.958 7.04937C143.577 7.28492 145.413 7.59351 147.046 7.59351C148.112 7.59351 147.085 7.59351 146.583 7.59351C145.323 7.59351 144.062 7.59351 142.801 7.59351C141.166 7.59351 149.153 7.63649 147.658 8.30089C147.336 8.4441 146.771 8.32809 146.42 8.32809C145.644 8.32809 144.854 8.63123 144.107 8.81782" stroke="#FF6563" stroke-width="3" stroke-linecap="round"/>
<path d="M132.109 14.9393C139.083 14.9393 146.057 14.9393 153.031 14.9393C153.466 14.9393 156.36 14.9393 155.616 14.9393C154.237 14.9393 152.859 14.9393 151.48 14.9393C149.204 14.9393 146.928 14.9393 144.652 14.9393C142.408 14.9393 140.258 14.4496 138.04 14.4496C134.467 14.4496 123.748 14.4496 127.321 14.4496C135.066 14.4496 142.811 14.4496 150.555 14.4496C151.811 14.4496 147.989 14.5575 146.801 14.1503C145.6 13.7387 144.629 13.715 143.373 13.715" stroke="#FF6563" stroke-width="3" stroke-linecap="round"/>
<path d="M8.45392 4.65514C9.63063 4.65514 10.5333 4.94664 11.6371 5.33531C12.5778 5.66654 13.5595 5.59609 14.5211 5.82504C15.0836 5.95898 15.0616 6.36917 15.6637 6.36917C16.3303 6.36917 16.9969 6.36917 17.6634 6.36917C20.551 6.36917 23.4442 6.34202 26.2744 6.12431C27.235 6.05042 25.5647 5.74718 25.3494 5.689C24.7644 5.53089 24.5725 5.14486 23.9346 5.14486C23.3875 5.14486 22.3783 5.04805 21.8125 4.8864C20.2002 4.42575 18.5851 4.41028 16.7792 4.41028C14.7387 4.41028 12.6982 4.41028 10.6577 4.41028C8.17767 4.41028 11.4308 4.41028 12.2629 4.41028C13.9769 4.41028 15.6909 4.41028 17.405 4.41028C23.4031 4.41028 29.43 4.65514 35.3887 4.65514" stroke="#FF6563" stroke-width="3" stroke-linecap="round"/>
<path d="M10.6577 3.43085C33.1385 3.43085 55.6787 3.67571 78.1852 3.67571C92.242 3.67571 106.299 3.67571 120.356 3.67571C125.738 3.67571 131.121 3.67571 136.503 3.67571C138.14 3.67571 139.777 3.67571 141.414 3.67571C142.434 3.67571 143.454 3.67571 144.475 3.67571C145.128 3.67571 144.978 3.78475 144.597 4.16543" stroke="#FF6563" stroke-width="3" stroke-linecap="round"/>
<path d="M15.5549 1.7168C16.7104 1.7168 17.6271 2.20652 18.7653 2.20652C19.9698 2.20652 21.4009 2.34572 22.6015 2.5058C24.0578 2.69997 25.1502 3.18597 26.6689 3.18597C27.8796 3.18597 29.0903 3.18597 30.301 3.18597C31.1431 3.18597 32.8583 2.94111 31.0764 2.94111C29.5665 2.94111 28.0565 2.94111 26.5465 2.94111C24.5081 2.94111 22.4276 3.09133 20.4522 2.69624" stroke="#FF6563" stroke-width="3" stroke-linecap="round"/>
<path d="M16.5344 1.7168C18.4839 1.7168 20.0648 2.45138 22.0302 2.45138C23.4132 2.45138 24.7962 2.45138 26.1792 2.45138C29.2354 2.45138 32.2917 2.45138 35.3479 2.45138C42.4709 2.45138 49.5383 2.69624 56.6917 2.69624" stroke="#FF6563" stroke-width="3" stroke-linecap="round"/>
<path d="M62.5684 14.9394C65.051 14.9394 67.5435 15.4291 70.0503 15.4291C71.1476 15.4291 72.245 15.4291 73.3423 15.4291C75.664 15.4291 77.9856 15.4291 80.3073 15.4291C84.6785 15.4291 89.0498 15.4291 93.421 15.4291" stroke="#FF6563" stroke-width="3" stroke-linecap="round"/>
<path d="M99.7874 2.69629H129.905" stroke="#FF6563" stroke-width="3" stroke-linecap="round"/>
</svg>
